<svg width="457" height="81" viewBox="0 0 457 81" fill="none" xmlns="http://www.w3.org/2000/svg">
<path d="M0.769348 59.2308V48.4615L34.6194 68.4615L68.4695 48.4615V59.2308L34.6194 79.2308L0.769348 59.2308Z" fill="#A5A5A5"/>
<path d="M69.1682 20.0886C69.1682 20.0788 69.1585 20.0684 69.1481 20.0488C69.1384 20.0286 69.1481 20.0091 69.1384 19.9889C69.1085 19.9191 69.0585 19.8689 69.0091 19.8186C68.9591 19.7684 68.9098 19.7189 68.8299 19.6889L35.0321 0.0973097C34.7834 -0.0324366 34.4742 -0.0324366 34.2053 0.0973097L0.418272 19.6889C0.348791 19.7189 0.298766 19.7691 0.248739 19.8186C0.0993542 19.9889 0 20.1786 0 20.4186V59.5892C0 59.6192 0.0201497 59.6395 0.0201497 59.6695C0.0298773 59.7692 0.0597548 59.8592 0.100054 59.9492C0.109781 59.9694 0.100054 59.9889 0.120203 59.9994C0.129931 60.0092 0.140353 60.0196 0.150081 60.0392C0.17023 60.0789 0.200107 60.1089 0.229985 60.1389C0.239712 60.1487 0.239712 60.1591 0.250134 60.1689C0.280012 60.2087 0.319615 60.2289 0.359916 60.2491L0.419673 60.3091L8.77687 65.1494C8.7866 65.1592 8.80675 65.1794 8.81648 65.1794C8.84635 65.2094 8.88596 65.2192 8.92626 65.2394L20.511 71.9598L25.6408 74.9399C25.661 74.9399 25.6707 74.9601 25.6909 74.9698C25.7207 74.9901 25.7506 74.9998 25.7902 75.0201L29.3463 77.08L34.1079 79.85C34.1378 79.8703 34.1774 79.88 34.2073 79.9003H34.217C34.3456 79.9498 34.4748 80 34.6242 80C34.7534 80 34.8834 79.9602 34.9924 79.9003C34.9924 79.9003 35.0022 79.9003 35.0022 79.8905C35.0119 79.8905 35.0223 79.8905 35.032 79.8807L35.112 79.8305H35.1217L36.1973 79.2104L43.3894 75.0402C43.3991 75.0402 43.3991 75.0305 43.4095 75.0305L60.2936 65.2402L60.4229 65.16H60.4326C60.4423 65.1502 60.4528 65.1398 60.4722 65.13L68.8198 60.2897C68.8893 60.2499 68.9393 60.1899 68.9991 60.1397C69.0088 60.13 69.0289 60.1195 69.0387 60.1097C69.0887 60.0497 69.1283 59.98 69.1582 59.9095L69.1679 59.8998V59.89C69.1881 59.8398 69.2075 59.8 69.2179 59.74C69.2381 59.6898 69.2381 59.6298 69.2381 59.5803V59.5105V59.4805V54.2502V54.2202V48.9599L69.2388 28.0683V20.4181C69.2388 20.3483 69.2388 20.2981 69.2186 20.2479C69.2186 20.1879 69.1884 20.1388 69.1682 20.0886ZM1.65284 21.8186L33.7963 40.4887V46.1292L1.65284 27.4894V21.8186ZM21.1371 61.7803V65.1308L14.3341 61.191V57.8406L21.1371 61.7803ZM1.65284 50.4895L4.2425 51.9893V55.3397L1.65284 53.8399V50.4895ZM8.45579 63.0498V63.0401L1.65284 59.1003V55.7499L8.45579 59.6896V63.0498ZM5.88641 56.3002V52.9603L12.6894 56.8904V60.2408L5.88641 56.3002ZM16.9028 67.9501L10.0999 63.9999V60.6398L13.0383 62.3397C13.0383 62.3397 13.0383 62.3495 13.0481 62.3495C13.0682 62.3593 13.0877 62.3697 13.1078 62.3795L16.9127 64.5796L16.9134 67.9502L16.9028 67.9501ZM25.3602 72.8401L25.0218 72.6399L18.5572 68.8898V65.5297L21.4956 67.2394L25.3505 69.4695L25.3498 72.8401L25.3602 72.8401ZM22.7796 66.0904V62.74L29.5825 66.6701V70.0302L22.7796 66.0904ZM33.8063 77.7404L30.8977 76.0607L27.0032 73.8006V70.4405L29.9118 72.1307C29.9618 72.1607 30.0313 72.2109 30.0813 72.2305H30.091L33.8063 74.3909L33.8063 77.7404ZM34.6331 72.9599L31.2361 70.99V67.6396L34.1349 69.3096C34.2641 69.4093 34.4434 69.4798 34.6331 69.4798C34.713 69.4798 34.7825 69.4595 34.8422 69.4498C34.9117 69.4296 34.9715 69.3996 35.0416 69.3696C35.0715 69.3493 35.1111 69.3396 35.1216 69.3193L38.0397 67.6292V70.9991L34.6331 72.9599ZM42.2532 73.79L35.4503 77.7298V74.3793L39.1557 72.2294C39.1856 72.2197 39.2058 72.1994 39.2252 72.1897L42.2435 70.4395V73.7899L42.2532 73.79ZM39.6733 70.0301V66.6602L46.4763 62.7301V66.0902L39.6733 70.0301ZM50.7106 68.8903L43.9174 72.8204H43.9077V69.4805L50.7106 65.5407L50.7106 68.8903ZM48.1307 65.1296V61.7597L54.9336 57.8296V61.1897L48.1307 65.1296ZM59.1574 63.9996L52.3643 67.9297V64.5792L56.0697 62.4294C56.0899 62.4196 56.1093 62.3994 56.1392 62.3896L59.1671 60.6296V63.9996L59.1574 63.9996ZM56.5775 60.23V56.8699L63.3707 52.9398V56.2999L56.5775 60.23ZM67.5939 59.1L60.8104 63.0301V59.6796L67.5939 55.7495V59.1ZM67.5939 53.8495L65.0238 55.3395V51.9794L67.5939 50.4894V53.8495ZM67.5939 27.4899L35.4505 46.1296V40.4891L67.5939 21.8386V27.4899Z" fill="black"/>
<path d="M35.4504 46.1296L67.5939 27.4898V21.8386L35.4504 40.4891V46.1296Z" fill="#9DFF20"/>
<path d="M33.7963 40.4887L1.65283 21.8186V27.4894L33.7963 46.1292V40.4887Z" fill="#9DFF20"/>
<path fill-rule="evenodd" clip-rule="evenodd" d="M227.918 16.8832V16.2419V14.026V8.57144H224.423V14.026H215.111V57.6624H219.409V16.8832H227.918ZM242.12 43.829C241.415 43.8045 240.679 43.7681 239.944 43.7317C236.691 43.5707 233.45 43.4101 232.884 44.2857C232.376 45.0656 232.451 47.0588 232.53 49.1735C232.566 50.1305 232.603 51.1125 232.587 52.0181H229.957V49.1032C230.998 48.7884 231.238 47.2408 231.456 45.8413C231.613 44.8341 231.757 43.9036 232.18 43.5645C232.538 43.2809 232.89 43.12 233.202 42.9775C233.801 42.7037 234.251 42.4981 234.307 41.6204H236.669C238.019 41.6204 239.177 41.8476 240.143 42.3022C240.959 42.6742 241.618 43.1832 242.12 43.829ZM240.017 26.3995C238.767 26.563 237.313 26.6893 236.024 26.8013C234.633 26.9221 233.433 27.0263 232.884 27.1429V34.8235H229.957V31.9663H231.498C232.049 31.9663 231.203 31.2764 230.269 30.515C230.166 30.4306 230.061 30.3452 229.957 30.2599V25.8272C229.979 25.7873 230.002 25.7496 230.027 25.7143C230.193 25.4789 230.553 25.3537 230.963 25.2567H235.966C237.646 25.2567 238.996 25.6376 240.017 26.3995ZM235.76 60.5195V63.1169H232.265V60.5195H235.76ZM227.918 60.5195H224.423V63.1169H227.918V60.5195ZM232.265 16.2419V8.57144H235.76V16.2419H232.265ZM113.074 13.5065H100.012V57.1429H104.323V16.6234H114.353L114.44 16.8832H114.459L114.353 16.6234L113.074 13.5065ZM126.201 36.7831L135.747 13.5065H148.81V16.6234H139.571L130.236 41.4286L128.737 42.9669L126.201 36.7831ZM172.867 14.026H161.083L177.044 43.0885V57.6624H181.342V45.9457L165.381 16.8832H174.311L172.867 14.026ZM183.713 29.8412L191.704 14.026H203.488L201.919 16.8832H196.002L186.776 35.1431H186.392L183.713 29.8412ZM296.453 18.4059C293.551 16.993 290.336 16.2866 286.809 16.2866C282.888 16.2866 279.357 17.153 276.218 18.886C273.078 20.619 270.585 23.1545 268.738 26.4925C266.906 29.8306 265.989 33.9002 265.989 38.7013C265.989 43.4883 266.906 47.5508 268.738 50.8888C269.881 52.9456 271.271 54.7005 272.909 56.1535C272.575 55.9911 272.245 55.8194 271.92 55.6382C268.78 53.891 266.287 51.3555 264.44 48.0317C262.608 44.6936 261.691 40.6311 261.691 35.8442C261.691 31.043 262.608 26.9734 264.44 23.6354C266.287 20.2973 268.78 17.7618 271.92 16.0288C275.059 14.2959 278.59 13.4294 282.511 13.4294C286.417 13.4294 289.94 14.2959 293.08 16.0288C294.302 16.7006 295.427 17.493 296.453 18.4059ZM291.354 28.6425C292.164 30.6027 292.569 33.0033 292.569 35.8442C292.569 38.6851 292.164 41.0856 291.354 43.0459C290.558 45.0061 289.408 46.4905 287.902 47.499C286.41 48.5075 284.613 49.0118 282.511 49.0118C281.436 49.0118 280.439 48.8783 279.519 48.6114C280.074 49.2989 280.707 49.8805 281.417 50.3562C282.923 51.3647 284.72 51.869 286.809 51.869C288.911 51.869 290.708 51.3647 292.2 50.3562C293.706 49.3476 294.856 47.8633 295.652 45.903C296.462 43.9428 296.867 41.5422 296.867 38.7013C296.867 35.8604 296.462 33.4599 295.652 31.4996C294.856 29.5394 293.706 28.055 292.2 27.0465C291.47 26.5531 290.667 26.1804 289.791 25.9283C290.412 26.6996 290.933 27.6043 291.354 28.6425ZM321.008 57.6624V16.8832H327.74L325.788 14.026H316.71V57.6624H321.008ZM343.326 36.2639V14.026H353.852V16.8832H347.624V42.0252H347.261L343.326 36.2639ZM378.234 14.026H367.686V57.6624H371.984V16.8832H378.234V14.026ZM382.532 27.7164V35.3349H383.107L397.533 16.8832H403.389L405.659 14.026H393.235L382.532 27.7164Z" fill="#A5A5A5"/>
<path d="M109.251 19.7403H122.249L133.275 46.7573H133.784L144.81 19.7403H157.808V63.3766H147.587V36.5726H147.227L136.795 63.0996H130.264L119.831 36.4235H119.471V63.3766H109.251V19.7403Z" fill="#FF6A00"/>
<path d="M109.251 19.7403H122.249L133.275 46.7573H133.784L144.81 19.7403H157.808V63.3766H147.587V36.5726H147.227L136.795 63.0996H130.264L119.831 36.4235H119.471V63.3766H109.251V19.7403Z" fill="black"/>
<path d="M169.357 19.7403H181.083L190.264 38.0002H190.646L199.827 19.7403H211.553L195.671 48.8028V63.3766H185.239V48.8028L169.357 19.7403Z" fill="#FF6A00"/>
<path d="M169.357 19.7403H181.083L190.264 38.0002H190.646L199.827 19.7403H211.553L195.671 48.8028V63.3766H185.239V48.8028L169.357 19.7403Z" fill="black"/>
<path d="M232.384 21.9562V14.2857H235.862V21.9562H232.384ZM240.187 21.9562V14.2857H243.665V21.9562H240.187ZM232.384 68.8312V61.1607H235.862V68.8312H232.384ZM240.187 68.8312V61.1607H243.665V68.8312H240.187ZM223.118 63.3766V19.7403H241.226C244.477 19.7403 247.199 20.2019 249.39 21.1252C251.595 22.0485 253.249 23.3411 254.351 25.003C255.468 26.665 256.027 28.5897 256.027 30.7772C256.027 32.4391 255.68 33.9235 254.988 35.2303C254.295 36.5229 253.341 37.5954 252.125 38.4476C250.909 39.2999 249.503 39.8965 247.905 40.2374V40.6635C249.658 40.7488 251.277 41.2246 252.761 42.0911C254.26 42.9576 255.461 44.165 256.366 45.7133C257.271 47.2474 257.723 49.0655 257.723 51.1678C257.723 53.5116 257.129 55.6067 255.942 57.4533C254.754 59.2857 253.037 60.7346 250.789 61.7999C248.542 62.851 245.813 63.3766 242.604 63.3766H223.118ZM233.614 54.8752H240.102C242.378 54.8752 244.053 54.442 245.128 53.5755C246.216 52.709 246.76 51.5016 246.76 49.9533C246.76 48.8312 246.499 47.8653 245.976 47.0556C245.453 46.2317 244.711 45.5996 243.749 45.1593C242.788 44.7047 241.636 44.4775 240.293 44.4775H233.614V54.8752ZM233.614 37.6806H239.424C240.569 37.6806 241.587 37.4888 242.477 37.1053C243.368 36.7218 244.06 36.1678 244.555 35.4434C245.064 34.7189 245.319 33.8454 245.319 32.8226C245.319 31.3596 244.803 30.209 243.771 29.3709C242.739 28.5329 241.346 28.1138 239.593 28.1138H233.614V37.6806Z" fill="#FF6A00"/>
<path d="M232.384 21.9562V14.2857H235.862V21.9562H232.384ZM240.187 21.9562V14.2857H243.665V21.9562H240.187ZM232.384 68.8312V61.1607H235.862V68.8312H232.384ZM240.187 68.8312V61.1607H243.665V68.8312H240.187ZM223.118 63.3766V19.7403H241.226C244.477 19.7403 247.199 20.2019 249.39 21.1252C251.595 22.0485 253.249 23.3411 254.351 25.003C255.468 26.665 256.027 28.5897 256.027 30.7772C256.027 32.4391 255.68 33.9235 254.988 35.2303C254.295 36.5229 253.341 37.5954 252.125 38.4476C250.909 39.2999 249.503 39.8965 247.905 40.2374V40.6635C249.658 40.7488 251.277 41.2246 252.761 42.0911C254.26 42.9576 255.461 44.165 256.366 45.7133C257.271 47.2474 257.723 49.0655 257.723 51.1678C257.723 53.5116 257.129 55.6067 255.942 57.4533C254.754 59.2857 253.037 60.7346 250.789 61.7999C248.542 62.851 245.813 63.3766 242.604 63.3766H223.118ZM233.614 54.8752H240.102C242.378 54.8752 244.053 54.442 245.128 53.5755C246.216 52.709 246.76 51.5016 246.76 49.9533C246.76 48.8312 246.499 47.8653 245.976 47.0556C245.453 46.2317 244.711 45.5996 243.749 45.1593C242.788 44.7047 241.636 44.4775 240.293 44.4775H233.614V54.8752ZM233.614 37.6806H239.424C240.569 37.6806 241.587 37.4888 242.477 37.1053C243.368 36.7218 244.06 36.1678 244.555 35.4434C245.064 34.7189 245.319 33.8454 245.319 32.8226C245.319 31.3596 244.803 30.209 243.771 29.3709C242.739 28.5329 241.346 28.1138 239.593 28.1138H233.614V37.6806Z" fill="black"/>
<path d="M310.922 41.5584C310.922 46.3596 310.003 50.4292 308.165 53.7672C306.328 57.1053 303.84 59.6408 300.702 61.3738C297.578 63.1067 294.072 63.9732 290.184 63.9732C286.283 63.9732 282.77 63.0996 279.646 61.3525C276.522 59.6053 274.041 57.0698 272.204 53.7459C270.38 50.4079 269.468 46.3454 269.468 41.5584C269.468 36.7573 270.38 32.6877 272.204 29.3496C274.041 26.0116 276.522 23.476 279.646 21.7431C282.77 20.0101 286.283 19.1437 290.184 19.1437C294.072 19.1437 297.578 20.0101 300.702 21.7431C303.84 23.476 306.328 26.0116 308.165 29.3496C310.003 32.6877 310.922 36.7573 310.922 41.5584ZM300.193 41.5584C300.193 38.7175 299.79 36.317 298.984 34.3567C298.193 32.3965 297.048 30.9121 295.549 29.9036C294.065 28.8951 292.277 28.3908 290.184 28.3908C288.107 28.3908 286.318 28.8951 284.82 29.9036C283.321 30.9121 282.169 32.3965 281.364 34.3567C280.572 36.317 280.176 38.7175 280.176 41.5584C280.176 44.3993 280.572 46.7999 281.364 48.7601C282.169 50.7204 283.321 52.2047 284.82 53.2133C286.318 54.2218 288.107 54.7261 290.184 54.7261C292.277 54.7261 294.065 54.2218 295.549 53.2133C297.048 52.2047 298.193 50.7204 298.984 48.7601C299.79 46.7999 300.193 44.3993 300.193 41.5584Z" fill="#FF6A00"/>
<path d="M310.922 41.5584C310.922 46.3596 310.003 50.4292 308.165 53.7672C306.328 57.1053 303.84 59.6408 300.702 61.3738C297.578 63.1067 294.072 63.9732 290.184 63.9732C286.283 63.9732 282.77 63.0996 279.646 61.3525C276.522 59.6053 274.041 57.0698 272.204 53.7459C270.38 50.4079 269.468 46.3454 269.468 41.5584C269.468 36.7573 270.38 32.6877 272.204 29.3496C274.041 26.0116 276.522 23.476 279.646 21.7431C282.77 20.0101 286.283 19.1437 290.184 19.1437C294.072 19.1437 297.578 20.0101 300.702 21.7431C303.84 23.476 306.328 26.0116 308.165 29.3496C310.003 32.6877 310.922 36.7573 310.922 41.5584ZM300.193 41.5584C300.193 38.7175 299.79 36.317 298.984 34.3567C298.193 32.3965 297.048 30.9121 295.549 29.9036C294.065 28.8951 292.277 28.3908 290.184 28.3908C288.107 28.3908 286.318 28.8951 284.82 29.9036C283.321 30.9121 282.169 32.3965 281.364 34.3567C280.572 36.317 280.176 38.7175 280.176 41.5584C280.176 44.3993 280.572 46.7999 281.364 48.7601C282.169 50.7204 283.321 52.2047 284.82 53.2133C286.318 54.2218 288.107 54.7261 290.184 54.7261C292.277 54.7261 294.065 54.2218 295.549 53.2133C297.048 52.2047 298.193 50.7204 298.984 48.7601C299.79 46.7999 300.193 44.3993 300.193 41.5584Z" fill="black"/>
<path d="M361.174 19.7403V63.3766H352.268L334.987 38.192H334.711V63.3766H324.215V19.7403H333.248L350.339 44.8823H350.699V19.7403H361.174Z" fill="#FF6A00"/>
<path d="M361.174 19.7403V63.3766H352.268L334.987 38.192H334.711V63.3766H324.215V19.7403H333.248L350.339 44.8823H350.699V19.7403H361.174Z" fill="black"/>
<path d="M374.939 63.3766V19.7403H385.435V38.192H386.007L400.362 19.7403H412.724L397.33 39.2147L413 63.3766H400.447L389.633 46.2246L385.435 51.5513V63.3766H374.939Z" fill="#FF6A00"/>
<path d="M374.939 63.3766V19.7403H385.435V38.192H386.007L400.362 19.7403H412.724L397.33 39.2147L413 63.3766H400.447L389.633 46.2246L385.435 51.5513V63.3766H374.939Z" fill="black"/>
</svg>
