<svg width="81" height="81" viewBox="0 0 81 81" fill="none" xmlns="http://www.w3.org/2000/svg">
<path d="M5.77777 59.9712V49.0673L40 69.3173L74.2222 49.0673V59.9712L40 80.2212L5.77777 59.9712Z" fill="black"/>
<path d="M74.9287 20.3397C74.9287 20.3298 74.9188 20.3192 74.9083 20.2995C74.8985 20.279 74.9083 20.2592 74.8985 20.2387C74.8683 20.1681 74.8177 20.1172 74.7678 20.0664C74.7172 20.0155 74.6674 19.9654 74.5866 19.935L40.4173 0.0985261C40.1658 -0.032842 39.8532 -0.032842 39.5814 0.0985261L5.42287 19.935C5.35263 19.9654 5.30205 20.0162 5.25147 20.0664C5.10045 20.2387 5 20.4308 5 20.6738V60.3341C5 60.3645 5.02037 60.385 5.02037 60.4153C5.03021 60.5163 5.06041 60.6074 5.10115 60.6985C5.11099 60.719 5.10115 60.7388 5.12153 60.7494C5.13136 60.7593 5.1419 60.7699 5.15173 60.7897C5.1721 60.8299 5.20231 60.8603 5.23251 60.8906C5.24235 60.9005 5.24235 60.9111 5.25288 60.921C5.28309 60.9613 5.32313 60.9818 5.36387 61.0022L5.42429 61.063L13.8734 65.9638C13.8832 65.9737 13.9036 65.9942 13.9134 65.9942C13.9436 66.0245 13.9837 66.0344 14.0244 66.0549L25.7365 72.8593L30.9227 75.8766C30.9431 75.8766 30.9529 75.8971 30.9733 75.907C31.0035 75.9275 31.0337 75.9373 31.0738 75.9578L34.6689 78.0434L39.4829 80.8481C39.5131 80.8686 39.5532 80.8785 39.5834 80.899H39.5932C39.7232 80.9491 39.8538 81 40.0049 81C40.1355 81 40.2669 80.9597 40.3772 80.899C40.3772 80.899 40.387 80.899 40.387 80.8891C40.3968 80.8891 40.4074 80.8891 40.4172 80.8792L40.498 80.8284H40.5078L41.5952 80.2005L48.8664 75.9782C48.8763 75.9782 48.8763 75.9684 48.8868 75.9684L65.9565 66.0557L66.0872 65.9745H66.097C66.1068 65.9646 66.1174 65.954 66.137 65.9441L74.5764 61.0433C74.6467 61.0031 74.6972 60.9423 74.7577 60.8915C74.7675 60.8816 74.7879 60.871 74.7977 60.8611C74.8483 60.8004 74.8883 60.7297 74.9185 60.6584L74.9283 60.6485V60.6386C74.9487 60.5878 74.9684 60.5475 74.9789 60.4868C74.9993 60.4359 74.9993 60.3752 74.9993 60.325V60.2544V60.224V54.9283V54.898V49.5719L75 28.4191V20.6733C75 20.6027 75 20.5518 74.9796 20.501C74.9796 20.4402 74.9491 20.3906 74.9287 20.3397ZM6.67102 22.0913L39.1679 40.9948V46.7058L6.67102 27.833V22.0913ZM26.3695 62.5526V65.9449L19.4917 61.9559V58.5636L26.3695 62.5526ZM6.67102 51.1206L9.28915 52.6391V56.0314L6.67102 54.5129V51.1206ZM13.5488 63.838V63.8281L6.67102 59.8391V56.4467L13.5488 60.4357V63.838ZM10.9511 57.0039V53.6223L17.8289 57.6015V60.9938L10.9511 57.0039ZM22.0886 68.7995L15.2109 64.7999V61.3978L18.1817 63.119C18.1817 63.119 18.1817 63.1289 18.1915 63.1289C18.2119 63.1387 18.2316 63.1493 18.2519 63.1592L22.0987 65.3868L22.0994 68.7996L22.0886 68.7995ZM30.639 73.7506L30.2969 73.5479L23.7612 69.7509V66.3488L26.732 68.0799L30.6292 70.3379L30.6285 73.7506L30.639 73.7506ZM28.03 66.9166V63.5243L34.9078 67.5035V70.9056L28.03 66.9166ZM39.178 78.7122L36.2374 77.0114L32.3 74.7231V71.321L35.2406 73.0324C35.2912 73.0627 35.3614 73.1136 35.412 73.1334H35.4218L39.1779 75.3208L39.178 78.7122ZM40.0139 73.8719L36.5795 71.8774V68.4851L39.5102 70.1759C39.6408 70.2769 39.8221 70.3483 40.0138 70.3483C40.0946 70.3483 40.1649 70.3278 40.2253 70.3179C40.2955 70.2974 40.3559 70.267 40.4269 70.2367C40.4571 70.2162 40.4971 70.2063 40.5077 70.1858L43.458 68.4745V71.8866L40.0139 73.8719ZM47.7178 74.7124L40.84 78.7014V75.3091L44.5862 73.1323C44.6164 73.1224 44.6368 73.1019 44.6565 73.092L47.708 71.32V74.7123L47.7178 74.7124ZM45.1095 70.9055V67.4934L51.9873 63.5142V66.9163L45.1095 70.9055ZM56.2681 69.7514L49.4002 73.7306H49.3904V70.349L56.2681 66.36L56.2681 69.7514ZM53.6598 65.9438V62.5317L60.5376 58.5525V61.9546L53.6598 65.9438ZM64.8078 64.7996L57.94 68.7788V65.3865L61.6861 63.2097C61.7065 63.1998 61.7262 63.1794 61.7564 63.1695L64.8176 61.3875V64.7996L64.8078 64.7996ZM62.1996 60.9829V57.5808L69.0674 53.6016V57.0037L62.1996 60.9829ZM73.3371 59.8387L66.4789 63.818V60.4256L73.3371 56.4464V59.8387ZM73.3371 54.5226L70.7387 56.0312V52.6291L73.3371 51.1205V54.5226ZM73.3371 27.8335L40.8402 46.7063V40.9952L73.3371 22.1116V27.8335Z" fill="#A5A5A5"/>
<path d="M40.8402 46.7063L73.3371 27.8335V22.1116L40.8402 40.9953V46.7063Z" fill="#9DFF20"/>
<path d="M39.1679 40.9948L6.67102 22.0913V27.8331L39.1679 46.7058V40.9948Z" fill="#9DFF20"/>
</svg>
