<svg width="413" height="80" viewBox="0 0 413 80" fill="none" xmlns="http://www.w3.org/2000/svg">
<g clip-path="url(#clip0_301_7)">
<path d="M0.769348 59.7308V48.9615L34.6194 68.9615L68.4695 48.9615V59.7308L34.6194 79.7308L0.769348 59.7308Z" fill="#A5A5A5"/>
<path d="M69.1682 20.5886C69.1682 20.5788 69.1585 20.5684 69.1481 20.5488C69.1384 20.5286 69.1481 20.5091 69.1384 20.4889C69.1085 20.4191 69.0585 20.3689 69.0091 20.3186C68.9591 20.2684 68.9098 20.2189 68.8299 20.1889L35.0321 0.59731C34.7834 0.467563 34.4742 0.467563 34.2053 0.59731L0.418272 20.1889C0.348791 20.2189 0.298766 20.2691 0.248739 20.3186C0.0993542 20.4889 0 20.6786 0 20.9186V60.0892C0 60.1192 0.0201497 60.1395 0.0201497 60.1695C0.0298773 60.2692 0.0597548 60.3592 0.100054 60.4492C0.109781 60.4694 0.100054 60.4889 0.120203 60.4994C0.129931 60.5092 0.140353 60.5196 0.150081 60.5392C0.17023 60.5789 0.200107 60.6089 0.229985 60.6389C0.239712 60.6487 0.239712 60.6591 0.250134 60.6689C0.280012 60.7087 0.319615 60.7289 0.359916 60.7491L0.419673 60.8091L8.77687 65.6494C8.7866 65.6592 8.80675 65.6794 8.81648 65.6794C8.84635 65.7094 8.88596 65.7192 8.92626 65.7394L20.511 72.4598L25.6408 75.4399C25.661 75.4399 25.6707 75.4601 25.6909 75.4698C25.7207 75.4901 25.7506 75.4998 25.7902 75.5201L29.3463 77.58L34.1079 80.35C34.1378 80.3703 34.1774 80.38 34.2073 80.4003H34.217C34.3456 80.4498 34.4748 80.5 34.6242 80.5C34.7534 80.5 34.8834 80.4602 34.9924 80.4003C34.9924 80.4003 35.0022 80.4003 35.0022 80.3905C35.0119 80.3905 35.0223 80.3905 35.032 80.3807L35.112 80.3305H35.1217L36.1973 79.7104L43.3894 75.5402C43.3991 75.5402 43.3991 75.5305 43.4095 75.5305L60.2936 65.7402L60.4229 65.66H60.4326C60.4423 65.6502 60.4528 65.6398 60.4722 65.63L68.8198 60.7897C68.8893 60.7499 68.9393 60.6899 68.9991 60.6397C69.0088 60.63 69.0289 60.6195 69.0387 60.6097C69.0887 60.5497 69.1283 60.48 69.1582 60.4095L69.1679 60.3998V60.39C69.1881 60.3398 69.2075 60.3 69.2179 60.24C69.2381 60.1898 69.2381 60.1298 69.2381 60.0803V60.0105V59.9805V54.7502V54.7202V49.4599L69.2388 28.5683V20.9181C69.2388 20.8483 69.2388 20.7981 69.2186 20.7479C69.2186 20.6879 69.1884 20.6388 69.1682 20.5886ZM1.65284 22.3186L33.7963 40.9887V46.6292L1.65284 27.9894V22.3186ZM21.1371 62.2803V65.6308L14.3341 61.691V58.3406L21.1371 62.2803ZM1.65284 50.9895L4.2425 52.4893V55.8397L1.65284 54.3399V50.9895ZM8.45579 63.5498V63.5401L1.65284 59.6003V56.2499L8.45579 60.1896V63.5498ZM5.88641 56.8002V53.4603L12.6894 57.3904V60.7408L5.88641 56.8002ZM16.9028 68.4501L10.0999 64.4999V61.1398L13.0383 62.8397C13.0383 62.8397 13.0383 62.8495 13.0481 62.8495C13.0682 62.8593 13.0877 62.8697 13.1078 62.8795L16.9127 65.0796L16.9134 68.4502L16.9028 68.4501ZM25.3602 73.3401L25.0218 73.1399L18.5572 69.3898V66.0297L21.4956 67.7394L25.3505 69.9695L25.3498 73.3401L25.3602 73.3401ZM22.7796 66.5904V63.24L29.5825 67.1701V70.5302L22.7796 66.5904ZM33.8063 78.2404L30.8977 76.5607L27.0032 74.3006V70.9405L29.9118 72.6307C29.9618 72.6607 30.0313 72.7109 30.0813 72.7305H30.091L33.8063 74.8909L33.8063 78.2404ZM34.6331 73.4599L31.2361 71.49V68.1396L34.1349 69.8096C34.2641 69.9093 34.4434 69.9798 34.6331 69.9798C34.713 69.9798 34.7825 69.9595 34.8422 69.9498C34.9117 69.9296 34.9715 69.8996 35.0416 69.8696C35.0715 69.8493 35.1111 69.8396 35.1216 69.8193L38.0397 68.1292V71.4991L34.6331 73.4599ZM42.2532 74.29L35.4503 78.2298V74.8793L39.1557 72.7294C39.1856 72.7197 39.2058 72.6994 39.2252 72.6897L42.2435 70.9395V74.2899L42.2532 74.29ZM39.6733 70.5301V67.1602L46.4763 63.2301V66.5902L39.6733 70.5301ZM50.7106 69.3903L43.9174 73.3204H43.9077V69.9805L50.7106 66.0407L50.7106 69.3903ZM48.1307 65.6296V62.2597L54.9336 58.3296V61.6897L48.1307 65.6296ZM59.1574 64.4996L52.3643 68.4297V65.0792L56.0697 62.9294C56.0899 62.9196 56.1093 62.8994 56.1392 62.8896L59.1671 61.1296V64.4996L59.1574 64.4996ZM56.5775 60.73V57.3699L63.3707 53.4398V56.7999L56.5775 60.73ZM67.5939 59.6L60.8104 63.5301V60.1796L67.5939 56.2495V59.6ZM67.5939 54.3495L65.0238 55.8395V52.4794L67.5939 50.9894V54.3495ZM67.5939 27.9899L35.4505 46.6296V40.9891L67.5939 22.3386V27.9899Z" fill="white"/>
<path d="M35.4504 46.6296L67.5939 27.9899V22.3386L35.4504 40.9891V46.6296Z" fill="#9DFF20"/>
<path d="M33.7963 40.9887L1.65283 22.3186V27.9894L33.7963 46.6292V40.9887Z" fill="#9DFF20"/>
<path fill-rule="evenodd" clip-rule="evenodd" d="M227.918 17.3831V16.7419V14.526V9.07143H224.423V14.526H215.111V58.1623H219.409V17.3831H227.918ZM242.12 44.329C241.415 44.3045 240.679 44.2681 239.944 44.2317C236.691 44.0706 233.45 43.9101 232.884 44.7857C232.376 45.5656 232.451 47.5588 232.53 49.6734C232.566 50.6305 232.603 51.6125 232.587 52.5181H229.957V49.6032C230.998 49.2884 231.238 47.7408 231.456 46.3413C231.613 45.334 231.757 44.4035 232.18 44.0645C232.538 43.7809 232.89 43.6199 233.202 43.4775C233.801 43.2037 234.251 42.9981 234.307 42.1204H236.669C238.019 42.1204 239.177 42.3476 240.143 42.8022C240.959 43.1742 241.618 43.6832 242.12 44.329ZM240.017 26.8995C238.767 27.063 237.313 27.1892 236.024 27.3013C234.633 27.422 233.433 27.5263 232.884 27.6429V35.3235H229.957V32.4663H231.498C232.049 32.4663 231.203 31.7764 230.269 31.015C230.166 30.9305 230.061 30.8452 229.957 30.7599V26.3272C229.979 26.2873 230.002 26.2496 230.027 26.2143C230.193 25.9789 230.553 25.8537 230.963 25.7567H235.966C237.646 25.7567 238.996 26.1376 240.017 26.8995ZM235.76 61.0195V63.6169H232.265V61.0195H235.76ZM227.918 61.0195H224.423V63.6169H227.918V61.0195ZM232.265 16.7419V9.07143H235.76V16.7419H232.265ZM113.074 14.0065H100.012V57.6429H104.323V17.1234H114.353L114.44 17.3831H114.459L114.353 17.1234L113.074 14.0065ZM126.201 37.283L135.747 14.0065H148.81V17.1234H139.571L130.236 41.9286L128.737 43.4669L126.201 37.283ZM172.867 14.526H161.083L177.044 43.5885V58.1623H181.342V46.4456L165.381 17.3831H174.311L172.867 14.526ZM183.713 30.3412L191.704 14.526H203.488L201.919 17.3831H196.002L186.776 35.6431H186.392L183.713 30.3412ZM296.453 18.9059C293.551 17.493 290.336 16.7865 286.809 16.7865C282.888 16.7865 279.357 17.653 276.218 19.386C273.078 21.1189 270.585 23.6544 268.738 26.9925C266.906 30.3306 265.989 34.4002 265.989 39.2013C265.989 43.9883 266.906 48.0508 268.738 51.3888C269.881 53.4456 271.271 55.2004 272.909 56.6535C272.575 56.4911 272.245 56.3193 271.92 56.1382C268.78 54.391 266.287 51.8555 264.44 48.5317C262.608 45.1936 261.691 41.1311 261.691 36.3442C261.691 31.543 262.608 27.4734 264.44 24.1353C266.287 20.7973 268.78 18.2618 271.92 16.5288C275.059 14.7959 278.59 13.9294 282.511 13.9294C286.417 13.9294 289.94 14.7959 293.08 16.5288C294.302 17.2006 295.427 17.9929 296.453 18.9059ZM291.354 29.1425C292.164 31.1027 292.569 33.5032 292.569 36.3442C292.569 39.1851 292.164 41.5856 291.354 43.5459C290.558 45.5061 289.408 46.9905 287.902 47.999C286.41 49.0075 284.613 49.5118 282.511 49.5118C281.436 49.5118 280.439 49.3783 279.519 49.1114C280.074 49.7988 280.707 50.3804 281.417 50.8562C282.923 51.8647 284.72 52.3689 286.809 52.3689C288.911 52.3689 290.708 51.8647 292.2 50.8562C293.706 49.8476 294.856 48.3633 295.652 46.403C296.462 44.4428 296.867 42.0422 296.867 39.2013C296.867 36.3604 296.462 33.9598 295.652 31.9996C294.856 30.0394 293.706 28.555 292.2 27.5465C291.47 27.0531 290.667 26.6803 289.791 26.4283C290.412 27.1996 290.933 28.1043 291.354 29.1425ZM321.008 58.1623V17.3831H327.74L325.788 14.526H316.71V58.1623H321.008ZM343.326 36.7639V14.526H353.852V17.3831H347.624V42.5252H347.261L343.326 36.7639ZM378.234 14.526H367.686V58.1623H371.984V17.3831H378.234V14.526ZM382.532 28.2163V35.8348H383.107L397.533 17.3831H403.389L405.659 14.526H393.235L382.532 28.2163Z" fill="#A5A5A5"/>
<path d="M109.251 20.2403H122.249L133.275 47.2573H133.784L144.81 20.2403H157.808V63.8766H147.587V37.0727H147.227L136.795 63.5996H130.264L119.831 36.9235H119.471V63.8766H109.251V20.2403Z" fill="#1E1E1E"/>
<path d="M109.251 20.2403H122.249L133.275 47.2573H133.784L144.81 20.2403H157.808V63.8766H147.587V37.0727H147.227L136.795 63.5996H130.264L119.831 36.9235H119.471V63.8766H109.251V20.2403Z" fill="white"/>
<path d="M169.357 20.2403H181.083L190.264 38.5002H190.646L199.827 20.2403H211.553L195.671 49.3028V63.8766H185.239V49.3028L169.357 20.2403Z" fill="#1E1E1E"/>
<path d="M169.357 20.2403H181.083L190.264 38.5002H190.646L199.827 20.2403H211.553L195.671 49.3028V63.8766H185.239V49.3028L169.357 20.2403Z" fill="white"/>
<path d="M232.384 22.4562V14.7857H235.862V22.4562H232.384ZM240.187 22.4562V14.7857H243.665V22.4562H240.187ZM232.384 69.3312V61.6607H235.862V69.3312H232.384ZM240.187 69.3312V61.6607H243.665V69.3312H240.187ZM223.118 63.8766V20.2403H241.226C244.477 20.2403 247.199 20.7019 249.39 21.6252C251.595 22.5485 253.249 23.8411 254.351 25.5031C255.468 27.165 256.027 29.0897 256.027 31.2772C256.027 32.9391 255.68 34.4235 254.988 35.7303C254.295 37.0229 253.341 38.0954 252.125 38.9477C250.909 39.7999 249.503 40.3965 247.905 40.7374V41.1636C249.658 41.2488 251.277 41.7246 252.761 42.5911C254.26 43.4576 255.461 44.665 256.366 46.2133C257.271 47.7474 257.723 49.5656 257.723 51.6678C257.723 54.0116 257.129 56.1067 255.942 57.9533C254.754 59.7857 253.037 61.2346 250.789 62.2999C248.542 63.3511 245.813 63.8766 242.604 63.8766H223.118ZM233.614 55.3752H240.102C242.378 55.3752 244.053 54.942 245.128 54.0755C246.216 53.209 246.76 52.0016 246.76 50.4533C246.76 49.3312 246.499 48.3653 245.976 47.5556C245.453 46.7317 244.711 46.0996 243.749 45.6593C242.788 45.2048 241.636 44.9775 240.293 44.9775H233.614V55.3752ZM233.614 38.1806H239.424C240.569 38.1806 241.587 37.9888 242.477 37.6053C243.368 37.2218 244.06 36.6678 244.555 35.9434C245.064 35.219 245.319 34.3454 245.319 33.3227C245.319 31.8596 244.803 30.709 243.771 29.8709C242.739 29.0329 241.346 28.6138 239.593 28.6138H233.614V38.1806Z" fill="#1E1E1E"/>
<path d="M232.384 22.4562V14.7857H235.862V22.4562H232.384ZM240.187 22.4562V14.7857H243.665V22.4562H240.187ZM232.384 69.3312V61.6607H235.862V69.3312H232.384ZM240.187 69.3312V61.6607H243.665V69.3312H240.187ZM223.118 63.8766V20.2403H241.226C244.477 20.2403 247.199 20.7019 249.39 21.6252C251.595 22.5485 253.249 23.8411 254.351 25.5031C255.468 27.165 256.027 29.0897 256.027 31.2772C256.027 32.9391 255.68 34.4235 254.988 35.7303C254.295 37.0229 253.341 38.0954 252.125 38.9477C250.909 39.7999 249.503 40.3965 247.905 40.7374V41.1636C249.658 41.2488 251.277 41.7246 252.761 42.5911C254.26 43.4576 255.461 44.665 256.366 46.2133C257.271 47.7474 257.723 49.5656 257.723 51.6678C257.723 54.0116 257.129 56.1067 255.942 57.9533C254.754 59.7857 253.037 61.2346 250.789 62.2999C248.542 63.3511 245.813 63.8766 242.604 63.8766H223.118ZM233.614 55.3752H240.102C242.378 55.3752 244.053 54.942 245.128 54.0755C246.216 53.209 246.76 52.0016 246.76 50.4533C246.76 49.3312 246.499 48.3653 245.976 47.5556C245.453 46.7317 244.711 46.0996 243.749 45.6593C242.788 45.2048 241.636 44.9775 240.293 44.9775H233.614V55.3752ZM233.614 38.1806H239.424C240.569 38.1806 241.587 37.9888 242.477 37.6053C243.368 37.2218 244.06 36.6678 244.555 35.9434C245.064 35.219 245.319 34.3454 245.319 33.3227C245.319 31.8596 244.803 30.709 243.771 29.8709C242.739 29.0329 241.346 28.6138 239.593 28.6138H233.614V38.1806Z" fill="white"/>
<path d="M310.922 42.0585C310.922 46.8596 310.003 50.9292 308.165 54.2673C306.328 57.6053 303.84 60.1408 300.702 61.8738C297.578 63.6067 294.072 64.4732 290.184 64.4732C286.283 64.4732 282.77 63.5996 279.646 61.8525C276.522 60.1053 274.041 57.5698 272.204 54.2459C270.38 50.9079 269.468 46.8454 269.468 42.0585C269.468 37.2573 270.38 33.1877 272.204 29.8496C274.041 26.5116 276.522 23.9761 279.646 22.2431C282.77 20.5102 286.283 19.6437 290.184 19.6437C294.072 19.6437 297.578 20.5102 300.702 22.2431C303.84 23.9761 306.328 26.5116 308.165 29.8496C310.003 33.1877 310.922 37.2573 310.922 42.0585ZM300.193 42.0585C300.193 39.2175 299.79 36.817 298.984 34.8567C298.193 32.8965 297.048 31.4121 295.549 30.4036C294.065 29.3951 292.277 28.8908 290.184 28.8908C288.107 28.8908 286.318 29.3951 284.82 30.4036C283.321 31.4121 282.169 32.8965 281.364 34.8567C280.572 36.817 280.176 39.2175 280.176 42.0585C280.176 44.8994 280.572 47.2999 281.364 49.2602C282.169 51.2204 283.321 52.7048 284.82 53.7133C286.318 54.7218 288.107 55.2261 290.184 55.2261C292.277 55.2261 294.065 54.7218 295.549 53.7133C297.048 52.7048 298.193 51.2204 298.984 49.2602C299.79 47.2999 300.193 44.8994 300.193 42.0585Z" fill="#1E1E1E"/>
<path d="M310.922 42.0585C310.922 46.8596 310.003 50.9292 308.165 54.2673C306.328 57.6053 303.84 60.1408 300.702 61.8738C297.578 63.6067 294.072 64.4732 290.184 64.4732C286.283 64.4732 282.77 63.5996 279.646 61.8525C276.522 60.1053 274.041 57.5698 272.204 54.2459C270.38 50.9079 269.468 46.8454 269.468 42.0585C269.468 37.2573 270.38 33.1877 272.204 29.8496C274.041 26.5116 276.522 23.9761 279.646 22.2431C282.77 20.5102 286.283 19.6437 290.184 19.6437C294.072 19.6437 297.578 20.5102 300.702 22.2431C303.84 23.9761 306.328 26.5116 308.165 29.8496C310.003 33.1877 310.922 37.2573 310.922 42.0585ZM300.193 42.0585C300.193 39.2175 299.79 36.817 298.984 34.8567C298.193 32.8965 297.048 31.4121 295.549 30.4036C294.065 29.3951 292.277 28.8908 290.184 28.8908C288.107 28.8908 286.318 29.3951 284.82 30.4036C283.321 31.4121 282.169 32.8965 281.364 34.8567C280.572 36.817 280.176 39.2175 280.176 42.0585C280.176 44.8994 280.572 47.2999 281.364 49.2602C282.169 51.2204 283.321 52.7048 284.82 53.7133C286.318 54.7218 288.107 55.2261 290.184 55.2261C292.277 55.2261 294.065 54.7218 295.549 53.7133C297.048 52.7048 298.193 51.2204 298.984 49.2602C299.79 47.2999 300.193 44.8994 300.193 42.0585Z" fill="white"/>
<path d="M361.174 20.2403V63.8766H352.268L334.987 38.692H334.711V63.8766H324.215V20.2403H333.248L350.339 45.3823H350.699V20.2403H361.174Z" fill="#1E1E1E"/>
<path d="M361.174 20.2403V63.8766H352.268L334.987 38.692H334.711V63.8766H324.215V20.2403H333.248L350.339 45.3823H350.699V20.2403H361.174Z" fill="white"/>
<path d="M374.939 63.8766V20.2403H385.435V38.692H386.007L400.362 20.2403H412.724L397.33 39.7147L413 63.8766H400.447L389.633 46.7246L385.435 52.0513V63.8766H374.939Z" fill="#1E1E1E"/>
<path d="M374.939 63.8766V20.2403H385.435V38.692H386.007L400.362 20.2403H412.724L397.33 39.7147L413 63.8766H400.447L389.633 46.7246L385.435 52.0513V63.8766H374.939Z" fill="white"/>
</g>
<defs>
<clipPath id="clip0_301_7">
<rect width="413" height="80" fill="white"/>
</clipPath>
</defs>
</svg>
